<svg width="18" height="18" viewBox="0 0 18 18" fill="none" xmlns="http://www.w3.org/2000/svg">
<path d="M6.33663 3.64653C6.68637 3.29675 7.10158 3.01929 7.55856 2.82999C8.01553 2.6407 8.50532 2.54326 8.99995 2.54326C9.49458 2.54326 9.98437 2.6407 10.4413 2.82999C10.8983 3.01929 11.3135 3.29675 11.6633 3.64653C11.7129 3.69791 11.7723 3.7389 11.8379 3.7671C11.9036 3.7953 11.9742 3.81014 12.0456 3.81076C12.117 3.81138 12.1879 3.79777 12.254 3.77072C12.3201 3.74366 12.3802 3.70371 12.4307 3.65319C12.4812 3.60268 12.5212 3.5426 12.5483 3.47648C12.5753 3.41036 12.5889 3.33951 12.5883 3.26806C12.5877 3.19662 12.5728 3.12602 12.5446 3.06038C12.5164 2.99473 12.4754 2.93536 12.4241 2.88573C11.9744 2.43607 11.4406 2.07937 10.8531 1.83602C10.2656 1.59266 9.63587 1.46741 8.99995 1.46741C8.36403 1.46741 7.73434 1.59266 7.14683 1.83602C6.55932 2.07937 6.0255 2.43607 5.57584 2.88573C5.47783 2.98721 5.4236 3.12312 5.42483 3.26419C5.42605 3.40527 5.48264 3.54021 5.58239 3.63997C5.68215 3.73973 5.8171 3.79631 5.95817 3.79754C6.09925 3.79877 6.23516 3.74453 6.33663 3.64653Z" fill="#03B66B"/>
<path d="M7.85982 5.16921C8.16247 4.86693 8.57272 4.69715 9.00047 4.69715C9.42821 4.69715 9.83847 4.86693 10.1411 5.16921C10.2422 5.27024 10.3792 5.327 10.5221 5.327C10.6649 5.327 10.802 5.27024 10.903 5.16921C11.004 5.06818 11.0608 4.93115 11.0608 4.78827C11.0608 4.64539 11.004 4.50837 10.903 4.40734C10.6532 4.15745 10.3566 3.95923 10.0301 3.82399C9.70369 3.68875 9.35381 3.61914 9.00047 3.61914C8.64712 3.61914 8.29724 3.68875 7.9708 3.82399C7.64436 3.95923 7.34776 4.15745 7.09795 4.40734C6.99994 4.50881 6.9457 4.64473 6.94693 4.7858C6.94816 4.92687 7.00474 5.06182 7.1045 5.16158C7.20426 5.26134 7.33921 5.31792 7.48028 5.31915C7.62135 5.32037 7.75726 5.26614 7.85874 5.16813L7.85982 5.16921ZM3.08199 12.2283C2.93929 12.2283 2.80244 12.1717 2.70153 12.0707C2.60063 11.9698 2.54395 11.833 2.54395 11.6903C2.54395 11.5476 2.60063 11.4107 2.70153 11.3098C2.80244 11.2089 2.93929 11.1523 3.08199 11.1523C3.22469 11.1523 3.36154 11.2089 3.46244 11.3098C3.56335 11.4107 3.62003 11.5476 3.62003 11.6903C3.62003 11.833 3.56335 11.9698 3.46244 12.0707C3.36154 12.1717 3.22469 12.2283 3.08199 12.2283ZM7.92438 11.6903C7.92438 11.833 7.98107 11.9698 8.08197 12.0707C8.18287 12.1717 8.31973 12.2283 8.46242 12.2283C8.60512 12.2283 8.74198 12.1717 8.84288 12.0707C8.94378 11.9698 9.00047 11.833 9.00047 11.6903C9.00047 11.5476 8.94378 11.4107 8.84288 11.3098C8.74198 11.2089 8.60512 11.1523 8.46242 11.1523C8.31973 11.1523 8.18287 11.2089 8.08197 11.3098C7.98107 11.4107 7.92438 11.5476 7.92438 11.6903ZM10.6146 12.2283C10.4719 12.2283 10.335 12.1717 10.2341 12.0707C10.1332 11.9698 10.0766 11.833 10.0766 11.6903C10.0766 11.5476 10.1332 11.4107 10.2341 11.3098C10.335 11.2089 10.4719 11.1523 10.6146 11.1523C10.7573 11.1523 10.8941 11.2089 10.9951 11.3098C11.096 11.4107 11.1526 11.5476 11.1526 11.6903C11.1526 11.833 11.096 11.9698 10.9951 12.0707C10.8941 12.1717 10.7573 12.2283 10.6146 12.2283ZM12.2287 11.6903C12.2287 11.833 12.2854 11.9698 12.3863 12.0707C12.4872 12.1717 12.6241 12.2283 12.7668 12.2283C12.9095 12.2283 13.0463 12.1717 13.1472 12.0707C13.2481 11.9698 13.3048 11.833 13.3048 11.6903C13.3048 11.5476 13.2481 11.4107 13.1472 11.3098C13.0463 11.2089 12.9095 11.1523 12.7668 11.1523C12.6241 11.1523 12.4872 11.2089 12.3863 11.3098C12.2854 11.4107 12.2287 11.5476 12.2287 11.6903ZM14.3809 11.6903C14.3809 11.833 14.4376 11.9698 14.5385 12.0707C14.6394 12.1717 14.7762 12.2283 14.9189 12.2283C15.0616 12.2283 15.1985 12.1717 15.2994 12.0707C15.4003 11.9698 15.457 11.833 15.457 11.6903C15.457 11.5476 15.4003 11.4107 15.2994 11.3098C15.1985 11.2089 15.0616 11.1523 14.9189 11.1523C14.7762 11.1523 14.6394 11.2089 14.5385 11.3098C14.4376 11.4107 14.3809 11.5476 14.3809 11.6903Z" fill="#03B66B"/>
<path d="M3.59188 2.91156C3.57162 2.84208 3.53754 2.7774 3.4917 2.7214C3.44585 2.66539 3.38918 2.61922 3.32507 2.58563C3.26096 2.55204 3.19074 2.53173 3.11859 2.52591C3.04645 2.52009 2.97388 2.52889 2.90522 2.55178C2.83656 2.57467 2.77322 2.61117 2.71899 2.65911C2.66477 2.70705 2.62078 2.76543 2.58964 2.83077C2.55851 2.89611 2.54088 2.96705 2.5378 3.03936C2.53473 3.11167 2.54628 3.18386 2.57175 3.2516L4.48719 9.00006H2.00573C1.57764 9.00006 1.16708 9.17012 0.864369 9.47283C0.561661 9.77554 0.391602 10.1861 0.391602 10.6142L0.391602 12.7664C0.391602 13.1945 0.561661 13.605 0.864369 13.9077C1.16708 14.2104 1.57764 14.3805 2.00573 14.3805H2.54378C2.54378 14.5232 2.60046 14.66 2.70136 14.761C2.80227 14.8619 2.93912 14.9185 3.08182 14.9185H5.23399C5.37669 14.9185 5.51354 14.8619 5.61445 14.761C5.71535 14.66 5.77204 14.5232 5.77204 14.3805H12.2286C12.2286 14.5232 12.2852 14.66 12.3861 14.761C12.4871 14.8619 12.6239 14.9185 12.7666 14.9185H14.9188C15.0615 14.9185 15.1983 14.8619 15.2992 14.761C15.4001 14.66 15.4568 14.5232 15.4568 14.3805H15.9949C16.423 14.3805 16.8335 14.2104 17.1362 13.9077C17.4389 13.605 17.609 13.1945 17.609 12.7664V10.6142C17.609 10.1861 17.4389 9.77554 17.1362 9.47283C16.8335 9.17012 16.423 9.00006 15.9949 9.00006H13.5134L15.4288 3.2516C15.4543 3.18386 15.4659 3.11167 15.4628 3.03936C15.4597 2.96705 15.4421 2.89611 15.411 2.83077C15.3798 2.76543 15.3358 2.70705 15.2816 2.65911C15.2274 2.61117 15.164 2.57467 15.0954 2.55178C15.0267 2.52889 14.9541 2.52009 14.882 2.52591C14.8099 2.53173 14.7396 2.55204 14.6755 2.58563C14.6114 2.61922 14.5547 2.66539 14.5089 2.7214C14.4631 2.7774 14.429 2.84208 14.4087 2.91156L12.3792 9.00006H5.62138L3.59188 2.91156ZM15.9949 10.0761C16.1376 10.0761 16.2744 10.1328 16.3753 10.2337C16.4762 10.3346 16.5329 10.4715 16.5329 10.6142V12.7664C16.5329 12.9091 16.4762 13.0459 16.3753 13.1468C16.2744 13.2477 16.1376 13.3044 15.9949 13.3044H2.00573C1.86303 13.3044 1.72618 13.2477 1.62528 13.1468C1.52438 13.0459 1.46769 12.9091 1.46769 12.7664V10.6142C1.46769 10.4715 1.52438 10.3346 1.62528 10.2337C1.72618 10.1328 1.86303 10.0761 2.00573 10.0761H15.9949Z" fill="#03B66B"/>
<path d="M9.538 6.30989C9.538 6.45259 9.48131 6.58945 9.38041 6.69035C9.27951 6.79125 9.14266 6.84794 8.99996 6.84794C8.85726 6.84794 8.72041 6.79125 8.6195 6.69035C8.5186 6.58945 8.46191 6.45259 8.46191 6.30989C8.46191 6.1672 8.5186 6.03034 8.6195 5.92944C8.72041 5.82854 8.85726 5.77185 8.99996 5.77185C9.14266 5.77185 9.27951 5.82854 9.38041 5.92944C9.48131 6.03034 9.538 6.1672 9.538 6.30989Z" fill="#03B66B"/>
</svg>
