<svg width="32" height="32" viewBox="0 0 32 32" fill="none" xmlns="http://www.w3.org/2000/svg">
<path d="M16.0001 10.52L14.5734 13C14.2534 13.5467 14.5201 14 15.1467 14H16.8401C17.4801 14 17.7334 14.4534 17.4134 15L16.0001 17.48" stroke="#03B66B" stroke-width="1.33333" stroke-linecap="round" stroke-linejoin="round"/>
<path d="M11.0671 24.0534V22.5067C8.00047 20.6534 5.48047 17.04 5.48047 13.2C5.48047 6.60003 11.5471 1.4267 18.4005 2.92003C21.4138 3.5867 24.0538 5.5867 25.4271 8.3467C28.2138 13.9467 25.2805 19.8934 20.9738 22.4934V24.04C20.9738 24.4267 21.1205 25.32 19.6938 25.32H12.3471C10.8805 25.3334 11.0671 24.76 11.0671 24.0534Z" stroke="#03B66B" stroke-width="1.33333" stroke-linecap="round" stroke-linejoin="round"/>
<path d="M11.333 29.3332C14.3863 28.4666 17.613 28.4666 20.6663 29.3332" stroke="#03B66B" stroke-width="1.33333" stroke-linecap="round" stroke-linejoin="round"/>
</svg>
