<svg width="27" height="33" viewBox="0 0 27 33" fill="none" xmlns="http://www.w3.org/2000/svg">
<path d="M26 8.8125V24.4375C26 30.6875 24.4375 32.25 18.1875 32.25H8.8125C2.5625 32.25 1 30.6875 1 24.4375V8.8125C1 2.5625 2.5625 1 8.8125 1H18.1875C24.4375 1 26 2.5625 26 8.8125Z" stroke="#03B66B" stroke-linecap="round" stroke-linejoin="round"/>
<path d="M16.625 6.46875H10.375" stroke="#03B66B" stroke-width="1.5" stroke-linecap="round" stroke-linejoin="round"/>
<path d="M13.5 27.7188C14.8376 27.7188 15.9219 26.6344 15.9219 25.2969C15.9219 23.9593 14.8376 22.875 13.5 22.875C12.1624 22.875 11.0781 23.9593 11.0781 25.2969C11.0781 26.6344 12.1624 27.7188 13.5 27.7188Z" stroke="#03B66B" stroke-linecap="round" stroke-linejoin="round"/>
</svg>
