<svg width="55" height="55" viewBox="0 0 55 55" fill="none" xmlns="http://www.w3.org/2000/svg">
<rect width="55" height="55" rx="5.97826" fill="#03B66B" fill-opacity="0.07"/>
<path d="M37.065 21.5217V33.4782C37.065 38.2609 35.8694 39.4565 31.0867 39.4565H23.9128C19.1302 39.4565 17.9346 38.2609 17.9346 33.4782V21.5217C17.9346 16.7391 19.1302 15.5435 23.9128 15.5435H31.0867C35.8694 15.5435 37.065 16.7391 37.065 21.5217Z" stroke="#03B66B" stroke-width="1.19565" stroke-linecap="round" stroke-linejoin="round"/>
<path d="M29.891 19.7283H25.1084" stroke="#03B66B" stroke-width="1.79348" stroke-linecap="round" stroke-linejoin="round"/>
<path d="M27.4997 35.989C28.5233 35.989 29.353 35.1593 29.353 34.1357C29.353 33.1122 28.5233 32.2825 27.4997 32.2825C26.4762 32.2825 25.6465 33.1122 25.6465 34.1357C25.6465 35.1593 26.4762 35.989 27.4997 35.989Z" stroke="#03B66B" stroke-width="1.19565" stroke-linecap="round" stroke-linejoin="round"/>
</svg>
