<svg width="34" height="34" viewBox="0 0 34 34" fill="none" xmlns="http://www.w3.org/2000/svg">
<rect width="34" height="34" rx="5" fill="#03B66B" fill-opacity="0.07"/>
<path d="M17.0149 10.1825C14.5324 10.1825 12.5149 12.2 12.5149 14.6825V16.85C12.5149 17.3075 12.3199 18.005 12.0874 18.395L11.2249 19.8275C10.6924 20.7125 11.0599 21.695 12.0349 22.025C15.2674 23.105 18.7549 23.105 21.9874 22.025C22.8949 21.725 23.2924 20.6525 22.7974 19.8275L21.9349 18.395C21.7099 18.005 21.5149 17.3075 21.5149 16.85V14.6825C21.5149 12.2075 19.4899 10.1825 17.0149 10.1825Z" stroke="#03B66B" stroke-miterlimit="10" stroke-linecap="round"/>
<path d="M18.4029 10.4C18.1704 10.3325 17.9304 10.28 17.6829 10.25C16.9629 10.16 16.2729 10.2125 15.6279 10.4C15.8454 9.84502 16.3854 9.45502 17.0154 9.45502C17.6454 9.45502 18.1854 9.84502 18.4029 10.4Z" stroke="#03B66B" stroke-miterlimit="10" stroke-linecap="round" stroke-linejoin="round"/>
<path d="M19.2646 22.295C19.2646 23.5325 18.2521 24.545 17.0146 24.545C16.3996 24.545 15.8296 24.29 15.4246 23.885C15.0196 23.48 14.7646 22.91 14.7646 22.295" stroke="#03B66B" stroke-miterlimit="10"/>
</svg>
